<svg xmlns="http://www.w3.org/2000/svg" width="66.821" height="28.663" viewBox="0 0 66.821 28.663">
  <g id="arrow" transform="translate(-207.813 -551.105)">
    <path id="Caminho_18" data-name="Caminho 18" d="M251.378,578.786A90.367,90.367,0,0,1,215.527,574c-2.823-.932-5.435-3.495-7.281-5.962-.89-1.188-.277-4.2.666-5.778.522-.861,3.809-1.25,4.738-.492,10.172,8.381,21.861,8.084,33.931,6.656A17.682,17.682,0,0,1,256,569.574c1.6.648,3.027,2.985,3.4,4.8.181.886-2.052,2.646-3.507,3.383A16.236,16.236,0,0,1,251.378,578.786Z" transform="translate(15.222 -1.785)" fill="#fff" fill-rule="evenodd"/>
    <path id="Caminho_19" data-name="Caminho 19" d="M262.054,578.657a4.81,4.81,0,0,1-.939-1.419c-1.974-4.619-3.844-9.283-5.887-13.869-1.392-3.12-3.056-6.121-4.506-9.217-.407-.867-.957-2.139-.613-2.759.368-.652,12.175-.029,16.616.245,3.19.2,6.375.428,9.563.668,1.247.094,2.49.254,3.275.335,2.191.971,3.021,2.637,1.936,4.44s-2.519,3.821-4.309,4.653c-5.3,2.462-7.909,6.6-9.111,12.044a16.305,16.305,0,0,1-1.931,4.374C265.018,580.142,263.588,580.276,262.054,578.657Zm4.388-19.188A6.783,6.783,0,0,0,275.414,558a1.452,1.452,0,0,0-.424-2.513,4.312,4.312,0,0,0-1.3-.39c-3.267-.531-6.525-1.136-9.808-1.52-1.358-.158-3.106-.638-4.156.276a.79.79,0,0,0-.178.823C260.569,557.285,264.04,558.046,266.442,559.469Z" transform="translate(-42.186)" fill="#fff" fill-rule="evenodd"/>
  </g>
</svg>
