<svg xmlns="http://www.w3.org/2000/svg" width="135.392" height="41.4" viewBox="0 0 135.392 41.4">
  <path id="Caminho_16" data-name="Caminho 16" d="M275.175,491.857c1.562,4.522,5.584,6.8,8.924,9.676,1.248,1.075,2.844,1.748,4.1,2.816a21.663,21.663,0,0,1,2.494,3.01c-.208.274-.417.545-.624.818a9.751,9.751,0,0,1-2.539-.943c-4.211-3.115-8.46-6.2-12.492-9.531-3.931-3.253-7.643-6.772-11.4-10.225a18.614,18.614,0,0,1-4.989-6.706c-1.227-3.037-4.054-4.5-6.76-5.973a3.229,3.229,0,0,0-3.9.617c-2.386,2.12-4.813,4.2-7.076,6.454-3.44,3.423-6.663,7.068-10.15,10.444-4.3,4.167-8.73,8.215-13.212,12.194-1.573,1.393-3.315,2.814-6.127,2.413a18.354,18.354,0,0,0,.244-3.009,2.747,2.747,0,0,0-.808-1.94,2.083,2.083,0,0,0-2,.3c-1.443,1.664-3.1,1.761-5.167,1.673-1.49-.063-3.03.991-4.54,1.562s-3.081,1.763-4.5,1.6c-2.61-.3-4.41.829-6.332,2.13-1.18.8-2.468,1.436-3.839,2.223-1.091-2.3.017-3.53,1.027-4.57a110.09,110.09,0,0,1,17.13-14.73c2.341-1.584,3.834-1.437,5.82.526,1.449,1.432,2.671,3.1,3.984,4.663,2.436,2.909,3.326,3.035,6.265.542,1.947-1.654,3.706-3.526,5.635-5.2,5.309-4.608,10.694-9.129,15.986-13.755,2.594-2.268,4.992-4.762,7.587-7.031,2.884-2.519,3.292-2.364,6.16-.1a43.961,43.961,0,0,1,10.215,11.319c2.353,3.762,4.2,3.955,7.918,1.39,3.368-2.322,6.693-4.7,10.022-7.08,2.467-1.759,3.516-1.9,5.848-.121,3.954,3.021,7.913,6.056,11.639,9.349a28.976,28.976,0,0,1,4.178,5.457,19.825,19.825,0,0,0,7.875,7.09,36.893,36.893,0,0,1,4.917,2.981,31.317,31.317,0,0,1,2.736,2.323c-1.091,1.957-2.331,1.675-3.5,1.006-6.208-3.545-12.323-7-16.724-13.112-2.934-4.069-7.143-7.261-10.971-10.629-1.963-1.727-2.723-1.475-4.965.446,1.7,1.081,3.578,1.948,3.916,4.265.3,2.08-.445,3.646-2.457,3.317C281.116,489.223,274.748,491.7,275.175,491.857Zm-70.024,2.5-1.953,2.11a19.045,19.045,0,0,0,2.658,2.26c.232.142,1.056-.689,1.607-1.073Z" transform="translate(-184.018 -470.065)" fill="#fff" fill-rule="evenodd"/>
</svg>
